<?xml version="1.0" encoding="UTF-8"?><svg id="Layer_2" xmlns="http://www.w3.org/2000/svg" viewBox="0 0 545.27 358.43"><defs><style>.cls-1{fill:#ff414c;}.cls-2{fill:#526681;}</style></defs><g id="sign"><g><path class="cls-2" d="M113.04,69.51c0-9.1-44-15.17-44,2.02s43.99,11.14,44-2.02Z"/><path class="cls-2" d="M57.81,282.49c0-6.67-32.22-11.11-32.22,1.48s32.22,8.16,32.22-1.48Z"/><path class="cls-2" d="M113.04,238.68c0-7.89-38.59-13.14-38.59,1.75s38.58,9.65,38.59-1.75Z"/><path class="cls-2" d="M240.19,34.52c-52.79,27.24-106.49,22.57-113.15,32.57-6.67,10,4.37,11.98,18.66,15.33,19.16,4.5,27,12,21.33,21-7.42,11.79-43.44,11.63-75.63,14.04-12.79,.96-18.83,14.91-1.03,18.36,18.28,3.54,36.96,4.97,33.62,20.11-4.52,20.5-52.39,18.58-112.24,22.96-14.13,1.03-16.59,15.68-1.38,17.32,39.25,4.22,144.06-1.4,155.33,38.72,8.67,30.83-47.45,34-80.2,39.36-18.05,2.95-17.88,16.39,5.3,16.4,68.36,.03,110.6,.8,116.57,12.74,5.5,11-22.68,14.59-42.41,17.33-24.91,3.46-21.59,15.17,.75,16.33,37.31,1.95,88.98,3.1,138.16,17.33C124.34,216.5,240.19,34.52,240.19,34.52Z"/><path class="cls-1" d="M345.84,0c-79.66,.05-206.74,70.23-174.6,211.79,33.21,146.24,189.89,185.43,283.99,107.05,105.99-88.28,104.57-197.24,66.05-189.18-36.81,7.7-63.32,109.44-101.75,115.13-25.57,3.78-51.56-74.22-69.37-72.72-19.84,1.67-27.68,105.64-83.34,82.59-42.33-17.52,31.42-145.14,42.19-161.9s38.49-23.12,58.06,1.2c33.07,41.1,41.87,66.92,67.93,35.91C466.52,92.41,521.35-.1,345.84,0Z"/></g></g></svg>